<svg width="21" height="16" viewBox="0 0 21 16" fill="none" xmlns="http://www.w3.org/2000/svg">
<path d="M12.644 6.55229C13.2511 6.05219 13.5922 5.37391 13.5922 4.66667C13.5922 3.95942 13.2511 3.28115 12.644 2.78105C12.0369 2.28095 11.2135 2 10.3548 2C9.49625 2 8.67281 2.28095 8.06568 2.78105C7.45856 3.28115 7.11748 3.95942 7.11748 4.66667C7.11748 5.37391 7.45856 6.05219 8.06568 6.55229C8.67281 7.05238 9.49625 7.33333 10.3548 7.33333C11.2135 7.33333 12.0369 7.05238 12.644 6.55229Z" stroke="#6B7280" stroke-linecap="round" stroke-linejoin="round"/>
<path d="M6.34881 10.7002C7.41128 9.825 8.85229 9.33333 10.3548 9.33333C11.8574 9.33333 13.2984 9.825 14.3609 10.7002C15.4234 11.5753 16.0202 12.7623 16.0202 14H4.68945C4.68945 12.7623 5.28634 11.5753 6.34881 10.7002Z" stroke="#6B7280" stroke-linecap="round" stroke-linejoin="round"/>
</svg>

